<?xml version="1.0" encoding="UTF-8"?>
<!DOCTYPE svg PUBLIC "-//W3C//DTD SVG 1.1//EN" "http://www.w3.org/Graphics/SVG/1.1/DTD/svg11.dtd">
<!-- Creator: CorelDRAW 2018 (64-Bit) -->
<svg xmlns="http://www.w3.org/2000/svg" xml:space="preserve" width="8.5in" height="11in" version="1.1" style="shape-rendering:geometricPrecision; text-rendering:geometricPrecision; image-rendering:optimizeQuality; fill-rule:evenodd; clip-rule:evenodd"
viewBox="0 0 8500 11000"
 xmlns:xlink="http://www.w3.org/1999/xlink">
 <defs>
  <style type="text/css">
   <![CDATA[
    .fil0 {fill:none}
    .fil2 {fill:#02A6B0}
    .fil1 {fill:#818286}
    .fil3 {fill:#9ADAE5}
    .fil4 {fill:#FEFEFE}
   ]]>
  </style>
 </defs>
 <g id="Layer_x0020_1">
  <metadata id="CorelCorpID_0Corel-Layer"/>
  <rect class="fil0" x="3650" y="4900" width="1200" height="1200"/>
  <g id="_2560938876160">
   <path class="fil1" d="M4094.91 4976.94c-11.09,19.63 -13.46,6.99 -40.82,51.65 -12.01,19.6 -24.2,39.52 -36.11,59.8l-140.56 243.43c-24.18,42.26 -48.28,77 -60.57,131.57l-134.47 0.56c-16.81,-21.12 -15.88,-29.63 -42.85,-43.93 -20.83,-11.05 -50.95,-16.79 -79.56,-9.71 -102.89,25.47 -105.8,178.43 -0.13,205.56 54.09,13.89 91.24,-9.95 120.57,-48.99l140.27 0.05c9.65,19.74 14.38,35.23 25.06,54.89 9.4,17.31 19.4,33.26 29.31,50.69 20.41,35.89 39.26,66.21 58.89,100.93l118.72 205.37c55.33,81.81 114.82,106.38 217.98,106.21 100.39,-0.16 226.49,6.85 323.61,-0.78 -5.79,-15.65 -17.67,-29.79 -24.07,-50.95 -8.08,-26.71 -5.2,-44.11 -9.54,-70.51 -86.82,1.33 -179.4,2.19 -266.02,0.04 -82.12,-2.04 -129.83,-34.68 -168.61,-101.17 -33.76,-57.88 -65.11,-113.16 -97.78,-170.3 -59.81,-104.65 -118.89,-168.54 -49.06,-290.05 16.98,-29.54 32.92,-58.09 49.89,-85.98 33.48,-55.01 66.92,-112.79 97.98,-170.08 30,-55.34 80.4,-98.39 167.43,-99.3 90.59,-0.94 182.76,-0.81 273.37,0.12 -1.34,-77.62 20.8,-83.94 34.46,-121.89 -138.02,-2.16 -279.96,-3.12 -415.6,4.98 -19.88,-54.48 -69.44,-93.92 -58.51,-122.22 8.08,-20.91 12.16,-31.39 9.16,-57.17 -7.85,-67.61 -85.44,-118.95 -157.32,-79.31 -82.72,45.61 -68.35,175.24 25.33,195.72 36.72,8.02 24,-2.32 40.91,27.1 15.39,26.77 35.96,56.32 48.64,83.67z"/>
   <path class="fil2" d="M3738.43 5949.01c97.11,157.41 146.19,325.23 321.98,378.19 76.48,23.04 181.13,14.78 266.21,14.78 93.33,0 186.67,0 280,0 179.39,0 297.16,8.43 409.74,-147.32l-103.07 -124.43c-68.72,-76.63 -32.88,-43.72 -38.12,-105.28 -1.93,-22.67 -9.53,-38.76 -20.49,-56 -17.37,-27.33 -49.9,-52.75 -100.07,-52.69 -147.31,0.17 -160.03,214.07 -21.88,238.2 41.27,7.21 25.71,-2.81 50.18,26.1 9.08,10.72 23.85,28.44 31.08,40.39 -58.79,46.33 -297.12,31.07 -391.38,31.07 -195.01,0 -314.7,28.93 -427.33,-103.85 -14.55,-17.15 -176.73,-299.64 -194.81,-333.02l-77.86 -130.81c-21,16.98 -25.93,25.6 -55.19,41.2 -24.17,12.89 -46.59,15.94 -79.4,17.4 4.82,19.93 130.11,233.22 150.39,266.09z"/>
   <path class="fil2" d="M4195.91 4815.61c31.8,4.57 273.41,1.47 326.71,1.47 89.67,0 234.18,-13.82 295.34,31.89 -7.58,14.28 -27.9,35.63 -39.34,46.79 -221.8,-9.74 -159.41,288.82 12.59,233.87 31.75,-10.14 57.85,-34.33 71.63,-60.52 26.26,-49.94 -6.47,-63.48 31.94,-103.98 18.5,-19.51 115.65,-131.22 123.53,-148.19 -22.2,-39.62 -81.01,-91.43 -128.82,-114.9 -72.43,-35.56 -121.82,-35.44 -210.87,-35.44 -161.56,0 -329.29,-4.4 -490.07,0.21 4.22,37.65 36.5,53.29 7.36,148.81z"/>
   <path class="fil2" d="M3585.71 5320.96c-3.63,9.99 -1.93,5.4 -4.44,15.05 18.69,-0.07 22.97,-1.09 33.94,5.75 46.7,-1.81 79.53,34.32 103.41,50.37l274.52 -471.18c-16.72,-13.42 -68.11,-13.03 -115.49,-98.8l-218.76 375.1c-9.66,18.28 -62.61,113.44 -73.19,123.72z"/>
   <path class="fil3" d="M3615.22 5341.75c-10.97,-6.84 -15.25,-5.81 -33.94,-5.75 2.5,-9.65 0.81,-5.06 4.44,-15.05 -0.85,0.93 -2.24,0.86 -2.61,2.71l-6.93 13.27c1.1,0.44 2.67,-0.11 3.33,1.21l14.9 2.59c8.66,0.84 12.3,1.02 20.81,1.01z"/>
  </g>
  <circle class="fil0" cx="4380" cy="5500" r="1000"/>
  <g id="_2560938881760">
   <path class="fil4" d="M6660.63 5499.23c8.42,-48.58 44.17,-118.99 67.2,-153.94 59.92,28.8 126.43,244.49 166.73,309.57l122.47 0.09c-9.73,-56.64 -81.64,-183.23 -110.39,-243.92 -45.51,-96.1 -56.79,-176.37 -179.63,-170.61 -108.59,5.09 -126.7,91.99 -169.3,183 -30.84,65.91 -86.17,167.76 -104.26,230.4l127.26 0.93c31.44,-74.18 10.04,-63 189.22,-62.83l33.09 -89.33 -142.41 -3.36z"/>
   <path class="fil4" d="M5363.68 5653.99l3.12 -140.2c-85.2,20.91 23.45,33.64 -185.4,33.4 -74.78,-0.09 -157.45,6.5 -188.26,-45.52 -40.49,-68.37 3.82,-127.83 61.94,-140.56 114.86,-25.14 144.06,13.66 209.85,25.4 18.14,-45.92 57.75,-90.78 87.95,-137.06 -218.58,-3.69 -495.18,-37.35 -490.32,210.31 4.63,236.05 295.22,197.83 501.1,194.23z"/>
   <path class="fil4" d="M6105.52 5356.98c42.76,-24.46 56.49,-62.82 68.44,-108.13l-481.79 -0.2 -1.4 107.67 172.12 4.83 6.78 294 124.55 -5.23 6.39 -292.85 104.91 -0.08z"/>
   <polygon class="fil4" points="5465.43,5653.65 5587.48,5650.81 5585.56,5250.04 5460.95,5252.86 "/>
   <polygon class="fil4" points="6268.53,5654.71 6389.78,5648.38 6388.2,5251.55 6262.77,5250.8 "/>
  </g>
 </g>
</svg>
